<svg xmlns="http://www.w3.org/2000/svg" version="1.1" xmlns:xlink="http://www.w3.org/1999/xlink" xmlns:svgjs="http://svgjs.dev/svgjs" width="1500" height="1687" viewBox="0 0 1500 1687"><g transform="matrix(1,0,0,1,0.00011015625000254659,0)"><svg viewBox="0 0 320 360" data-background-color="#000000" preserveAspectRatio="xMidYMid meet" height="1687" width="1500" xmlns="http://www.w3.org/2000/svg" xmlns:xlink="http://www.w3.org/1999/xlink"><g id="tight-bounds" transform="matrix(1,0,0,1,0.000023499999997511622,0)"><svg viewBox="0 0 320 360" height="360" width="320"><g><svg></svg></g><g><svg viewBox="0 0 320 360" height="360" width="320"><g><path transform="translate(-74.99272,-51.79039) scale(4.65793,4.65793)" d="M20.6 59.9l0.8 1-0.4-1.3c-0.1-0.6-0.8 0.1-0.4 0.3M21.5 59.3c0.3 0.5 0.6 1 0.6 1.5 0 0.7 0.6 1 1.1 1.2-0.7-0.8-1.1-3-1.7-2.7M59.9 16.9c1.7 0 3.3-0.2 5.1 0.2 4.4 1.1 8.1 3.3 10.6 6.4l7 11.2c0.3 2.8 0.9 5.9 0.8 9.3 0.7 0 0.6-1 1.4-1.2-0.8 2-1.2 4.5-1.4 7.4-0.5-1.6 0-4 0.1-5.3-0.7 1.1-1.1 0.3-1.1-0.2 0.1-0.8-0.3-0.7-0.6-1-1.1-1-1.8-2.1-2.6-3.8 0.5-1.3 0.6-3.2-1-4.2-0.5-0.3-1.1-0.8-1.4-1.6-0.4-1.1-1.1-2.4-0.9-4.1 0.1-0.5-1.5 1.1-2.4 0.4-3.9-2.7-7.8-5.8-12.5-8.4-2.5 0-4.3-0.9-5.2-2-0.8-1-0.2-2.3 1-2.4 0.7 0 1.5-0.2 2.1 0.2 0.1-0.4 0.5-0.9 1-0.9M50 14.6l0.2 0.1c1 0.2 1.5 1.6 2.6 1.1 0 0.7 0.1 1.4-0.1 1.9-0.3 0.8-1.2 0.8-1.9 0.8-6.7-0.4-10.6 2.4-14.7 4.8-1.1 0.7-2.3 1.2-3.2 2.1-4.3 4-9 7.7-10.1 15.1l-0.9 8.2c-0.1 0.9-1.1 1.8-0.9 2.9l0.7 4.9c-0.7-0.7-1.1 0.2-0.9 0.6 0.1 0.3 0.5 1.3 1.1 0.4 0.8 1.5 1.6 4.4 2.7 5.7 3.4 4 7.8 7.6 11.4 11.2 0.9-0.2 1.6-0.2 1.8-0.8 0.3 0.6-0.3 1.2-0.8 1.3 1.6 1 3.4 1.9 5.8 2.1 3.1 0.2 6 0.7 8.7 1.4 1.4-0.4 2.8-0.6 4.3-0.7 0.5 0 0.8-0.8 1.4-1l0.1-1c0.6 0.9 0.5-0.3 0.1-0.9 0.7 0.6 0.9 1.1 1.2 1.5 0-0.3 0.8-1.4 0.8-0.1l0.2-1.3c0.3-0.2 0.4 1.1 0.7 0.2 0.3-0.9 0.9-0.2 1.5-0.5-0.2 0.4-0.1 1.2 0.6 0.7l0.8-0.7c0.5 1.2 1.3 0.7 1.7 0.5 4.4-2.8 8.8-6.1 13-9.4l-0.1 1.3 0.5-1.6c0.5 0.5 0.9 0.1 1.1-0.2 0.6-1 1.4-2 2.7-2.9-1.6 4.3-3.5 7.7-5.9 10.5l-1 1.2c0 0.7-0.2 1.6-1 1.7-0.4 0.1-1.2-0.2-1.8 0.4-0.3 0.4 0.7 1.2-0.1 0.6-0.7-0.5-1.4 0-2.2 0.2-0.6 0.2 0.4 0.8 0.6 1.2 0.2 0.4 0.4 0.8 0.3 1.3l-1.1-1.2c-1.3 0.7-2.1 2-3.2 3-0.5 0.4-0.3 1.1-0.3 1.7-0.7 0-1.5-0.2-1.9 0.2-0.3 0.4-0.2 1-0.2 1.6-1-0.1-1.1-1.6-2-1.3-0.9 0.2-1.9 0.3-2.7 0.8 0.6 1.2-1 0.5-0.8 0.7-1.5-0.9-2.8-1.6-4.4-1-3.4-1.1-7.6-0.6-10.7-0.2 0-0.5 0.1-1-0.1-1.1-0.2 0.5-0.8 0.3-0.7 0.3-1.9-1.3-3.8-2.1-5.8-3.2-1.8 0.2-3.5-0.7-4-1.2-1.4-1.3-3-0.6-4.3-0.9-2.8-0.7-3.8-3.6-4.1-5.6-0.2-1-1-1.4-1.3-1.3-1.3-4.2-3.3-8-4.9-11.9-0.4-1-0.3-2-0.3-3.1 0.5 0.2 1 0.1 0.9-0.6-0.5-3.3-1.7-5.8-3-8.2 0.7-3.4 0.8-7.4 2.4-10.4 1.4-2.7 4-4.1 5.8-6.4 0.6-0.8 0.6-1.9 1.2-2.6 2-2 4-4.1 6.2-5.9 1-0.8 2.2 0 3.7-0.3 0.5-1.8 2.5-3.4 4.4-2.9 0.8 0.2 2.4-1.9 2.9-2.1 0.8-0.3 0.4 0.8 0.4 1.5 1.9-1.5 4.5-2.3 6.9-3.2" fill="#cbb754" fill-rule="nonzero" stroke="none" stroke-width="1" stroke-linecap="butt" stroke-linejoin="miter" stroke-miterlimit="10" stroke-dasharray="" stroke-dashoffset="0" font-family="none" font-weight="none" font-size="none" text-anchor="none" style="mix-blend-mode: normal" data-fill-palette-color="tertiary"></path></g><g transform="matrix(1,0,0,1,64.00000000000001,148.05436245572426)"><svg viewBox="0 0 191.99999999999997 63.89127508855148" height="63.89127508855148" width="191.99999999999997"><g><svg viewBox="0 0 315.4206753334364 104.96161008513162" height="63.89127508855148" width="191.99999999999997"><g transform="matrix(1,0,0,1,123.42067533343638,0)"><svg viewBox="0 0 192 104.96161008513162" height="104.96161008513162" width="192"><g id="textblocktransform"><svg viewBox="0 0 192 104.96161008513162" height="104.96161008513162" width="192" id="textblock"><g><svg viewBox="0 0 192 73.01587301587301" height="73.01587301587301" width="192"><g transform="matrix(1,0,0,1,0,0)"><svg width="192" viewBox="5 -28.75 75.6 28.75" height="73.01587301587301" data-palette-color="#cbb754"><g class="wordmark-text-0" data-fill-palette-color="primary" id="text-0"><path d="M5-28.75L5-28.75 21-28.75 21-22.85 11.3-22.85 11.3-17.2 21-17.2 21-11.5 11.3-11.5 11.3-5.65 20.8-5.65 20.8 0 5 0 5-28.75ZM23.45-5.65L23.45-5.65 23.45 0 39.45 0 39.45-5.65 23.45-5.65ZM39.45-22.85L39.45-22.85 39.45-28.75 23.25-28.75 23.25-22.85 39.45-22.85ZM31.35-11.5L31.35-11.5 31.35-17.2 23.25-17.2 23.25-11.5 31.35-11.5ZM45.95-28.75L45.95-28.75 62.15-28.75 62.15-23.1 52.45-23.1 52.45-17.2 62.15-17.2 62.15-11.35 52.45-11.35 52.45 0 45.95 0 45.95-28.75ZM80.6-14.75L80.6-14.75 80.6-25.3 74.75-28.75 64.4-28.75 64.4-23.1 74.1-23.1 74.1-17.2 64.4-17.2 64.4-11.35 74.75-11.35 80.6-14.75Z" fill="#cbb754" data-fill-palette-color="primary"></path></g></svg></g></svg></g><g transform="matrix(1,0,0,1,0,90.25316825396825)"><svg viewBox="0 0 182.39999999999995 14.708441831163375" height="14.708441831163375" width="182.39999999999995"><g transform="matrix(1,0,0,1,0,0)"><svg width="182.39999999999995" viewBox="5 -28.75 357.13 28.8" height="14.708441831163375" data-palette-color="#cbb754"><path d="M5-28.75L5-28.75 21-28.75 21-22.85 11.3-22.85 11.3-17.2 21-17.2 21-11.5 11.3-11.5 11.3-5.65 20.8-5.65 20.8 0 5 0 5-28.75ZM23.45-5.65L23.45-5.65 23.45 0 39.45 0 39.45-5.65 23.45-5.65ZM39.45-22.85L39.45-22.85 39.45-28.75 23.25-28.75 23.25-22.85 39.45-22.85ZM31.35-11.5L31.35-11.5 31.35-17.2 23.25-17.2 23.25-11.5 31.35-11.5ZM41.45-20.05L47.75-21.85 56-9.3 56 0 54.05 0 41.45-20.05ZM72.45-20.05L66.4-21.85 58.5-9.3 58.5 0 60.3 0 72.45-20.05ZM107.15-18.55L107.15-12.85 101.25-9.4 93.25-9.4 93.25-13.25 100.8-13.25 100.8-17.35 93.25-17.35 93.25-22.05 101.25-22.05 107.15-18.55ZM100.6-6.95L107.15-6.95 107.15-3.45 101.25 0 93.25 0 93.25-5.3 100.6-5.3 100.6-6.95ZM76.95-18.55L76.95-3.45 82.85 0 90.8 0 90.8-5.3 83.25-5.3 83.25-9.4 90.8-9.4 90.8-13.25 83.25-13.25 83.25-17.35 90.8-17.35 90.8-22.05 82.85-22.05 76.95-18.55ZM116.14-0.05L116.14-22 122.49-22 122.49-19.85 129.89-22 129.89-17.3 122.49-17.3 122.49-0.05 116.14-0.05ZM146.09-0.05L146.09-18.55 140.19-22 132.29-22 132.29-17.3 139.84-17.3 139.84-0.05 146.09-0.05ZM164.09-17.2L164.09-21.85 171.59-21.85 171.59-17.2 164.09-17.2ZM171.59-7.5L177.89-7.5 177.89-3.45 172.19 0 164.09 0 164.09-5.25 171.59-5.25 171.59-7.5ZM151.09-19.35L161.84-25.3 161.84-5.25 161.84 0 155.59-3.45 155.59-17.2 151.09-17.15 151.09-19.35ZM199.39-28.75L199.39-28.75 215.59-28.75 215.59-23.1 205.89-23.1 205.89-17.2 215.59-17.2 215.59-11.35 205.89-11.35 205.89 0 199.39 0 199.39-28.75ZM234.04-14.75L234.04-14.75 234.04-25.3 228.19-28.75 217.84-28.75 217.84-23.1 227.54-23.1 227.54-17.2 217.84-17.2 217.84-11.35 228.19-11.35 234.04-14.75ZM268.73-21.85L268.73 0 262.48 0 262.48-2.25 254.98 0 254.98-5.25 262.48-5.25 262.48-21.85 268.73-21.85ZM238.93-21.85L238.93-3.45 244.58 0 252.68 0 252.68-5.25 245.23-5.25 245.23-21.85 238.93-21.85ZM278.73 0.05L278.73-28.75 285.13-28.75 285.13 0.05 278.73 0.05ZM323.93-9.7L323.93-3.45 318.23 0 310.18 0 310.18-5.25 317.88-5.25 317.88-9.3 310.33-9.3 310.33-13.2 318.23-13.2 323.93-9.7ZM294.13-12.75L294.13-18.4 299.83-21.85 307.93-21.85 307.93-17.2 300.43-17.2 300.43-13.2 307.93-13.2 307.93-9.3 299.83-9.3 294.13-12.75ZM294.13-6.95L300.43-6.95 300.43-5.25 307.93-5.25 307.93 0 299.83 0 294.13-3.45 294.13-6.95ZM323.93-15.05L317.68-15.05 317.68-17.2 310.18-17.2 310.18-21.85 318.23-21.85 323.93-18.4 323.93-15.05ZM362.13-18.55L362.13-12.85 356.23-9.4 348.23-9.4 348.23-13.25 355.78-13.25 355.78-17.35 348.23-17.35 348.23-22.05 356.23-22.05 362.13-18.55ZM355.58-6.95L362.13-6.95 362.13-3.45 356.23 0 348.23 0 348.23-5.3 355.58-5.3 355.58-6.95ZM331.93-18.55L331.93-3.45 337.83 0 345.78 0 345.78-5.3 338.23-5.3 338.23-9.4 345.78-9.4 345.78-13.25 338.23-13.25 338.23-17.35 345.78-17.35 345.78-22.05 337.83-22.05 331.93-18.55Z" opacity="1" transform="matrix(1,0,0,1,0,0)" fill="#cbb754" class="slogan-text-1" data-fill-palette-color="secondary" id="text-1"></path></svg></g></svg></g></svg></g></svg></g><g transform="matrix(1,0,0,1,0,8.007762613942859)"><svg viewBox="0 0 88.9460848572459 88.9460848572459" height="88.9460848572459" width="88.9460848572459"><g><svg></svg></g><g id="icon-0"><svg viewBox="0 0 88.9460848572459 88.9460848572459" height="88.9460848572459" width="88.9460848572459"><g><path d="M0 44.473c0-24.562 19.911-44.473 44.473-44.473 24.562 0 44.473 19.911 44.473 44.473 0 24.562-19.911 44.473-44.473 44.473-24.562 0-44.473-19.911-44.473-44.473zM44.473 82.361c20.925 0 37.888-16.963 37.888-37.888 0-20.925-16.963-37.888-37.888-37.888-20.925 0-37.888 16.963-37.888 37.888 0 20.925 16.963 37.888 37.888 37.888z" data-fill-palette-color="accent" fill="#cbb754" stroke="transparent"></path></g><g transform="matrix(1,0,0,1,26.23134361797458,26.80987366425867)"><svg viewBox="0 0 36.483397621296746 35.326337528728565" height="35.326337528728565" width="36.483397621296746"><g><svg xmlns="http://www.w3.org/2000/svg" xmlns:xlink="http://www.w3.org/1999/xlink" version="1.1" x="0" y="0" viewBox="10.637353779393939 10.900000000000002 79.62529244121212 77.1" style="enable-background:new 0 0 100 100;" xml:space="preserve" height="35.326337528728565" width="36.483397621296746" class="icon-cg-0" data-fill-palette-color="accent" id="cg-0"><path d="M10.7 81.5c-0.2 0.5 0.1 1.1 0.6 1.3l13.8 5c0.1 0 0.2 0.1 0.3 0.1 0.4 0 0.8-0.3 0.9-0.7 0.2-0.5-0.1-1.1-0.6-1.3l-6.1-2.2 7.8-21.4c0.2 0 0.4 0 0.5 0 2.3 0 5-1.7 7.8-4.9 3.2-3.7 6.1-9.1 8.3-15.1 1.4-3.7 4.3-13 5-16.9 0.1-0.5-0.2-0.9-0.6-1.1l-14.6-5.3c-0.5-0.2-1 0-1.2 0.4-2 3.4-5.7 12.4-7 16.1-4.4 12.2-4.4 23.1-0.1 26l-7.8 21.4-5.8-2.1C11.4 80.8 10.8 81 10.7 81.5zM40.1 36c-2.4-0.9-4-0.3-5.5 0.1-1.3 0.4-2.5 0.8-4.2 0.2-1.1-0.4-1.8-1-2.3-1.6 1.5-3.9 4.1-10.2 5.8-13.4l13 4.7c-0.7 3.1-2.3 8.4-3.6 12.3C42.6 37.4 41.7 36.6 40.1 36zM27.4 36.8c0.6 0.5 1.3 1 2.3 1.4 2.4 0.9 4 0.3 5.5-0.1 1.3-0.4 2.5-0.8 4.2-0.2 1.7 0.6 2.4 1.6 3.1 2.8-0.1 0.4-0.2 0.7-0.4 1-2.1 5.8-4.9 11-8 14.5-2.8 3.2-5.4 4.7-7.1 4.1C23.7 59 23 49.1 27.4 36.8z" fill="#cbb754" data-fill-palette-color="accent"></path><path d="M75.8 87.9l13.8-5c0.5-0.2 0.8-0.8 0.6-1.3s-0.8-0.8-1.3-0.6l-5.8 2.1-7.8-21.4c4.3-2.9 4.3-13.8-0.1-26-1.4-3.7-5.1-12.8-7-16.1-0.2-0.4-0.8-0.6-1.2-0.4l-14.6 5.3c-0.5 0.2-0.7 0.6-0.6 1.1 0.7 3.8 3.7 13.2 5 16.9 2.2 6 5.2 11.4 8.3 15.1 2.8 3.2 5.5 4.9 7.8 4.9 0.2 0 0.4 0 0.5 0l7.8 21.4L75.1 86c-0.5 0.2-0.8 0.8-0.6 1.3 0.1 0.4 0.5 0.7 0.9 0.7C75.6 87.9 75.7 87.9 75.8 87.9zM72.7 34.7c-0.5 0.6-1.1 1.2-2.2 1.6-1.7 0.6-2.9 0.3-4.2-0.2-1.5-0.5-3.1-1-5.5-0.1-1.6 0.6-2.5 1.4-3.2 2.4-1.3-3.9-3-9.3-3.6-12.3l13-4.7C68.6 24.5 71.2 30.8 72.7 34.7zM73.7 60.2c-1.8 0.6-4.4-0.8-7.1-4.1-3-3.5-5.8-8.7-8-14.5-0.1-0.3-0.2-0.6-0.4-1 0.8-1.2 1.4-2.2 3.1-2.8 1.7-0.6 2.9-0.3 4.2 0.2 1.5 0.5 3.1 1 5.5 0.1 1-0.4 1.8-0.9 2.3-1.4C77.9 49.1 77.2 59 73.7 60.2z" fill="#cbb754" data-fill-palette-color="accent"></path><path d="M50.7 18.1c-0.5 0-1-0.4-1-1l-0.1-5.2c0-0.6 0.4-1 1-1 0.6 0 1 0.4 1 1l0.1 5.2C51.7 17.7 51.3 18.1 50.7 18.1 50.7 18.1 50.7 18.1 50.7 18.1z" fill="#cbb754" data-fill-palette-color="accent"></path><path d="M44.8 18.7c-0.3 0-0.7-0.2-0.9-0.5l-2.7-4.5c-0.3-0.5-0.1-1.1 0.3-1.4 0.5-0.3 1.1-0.1 1.4 0.3l2.7 4.5c0.3 0.5 0.1 1.1-0.3 1.4C45.2 18.6 45 18.7 44.8 18.7z" fill="#cbb754" data-fill-palette-color="accent"></path><path d="M56.5 18.6c-0.2 0-0.4 0-0.5-0.2-0.5-0.3-0.6-0.9-0.3-1.4l2.8-4.5c0.3-0.5 0.9-0.6 1.4-0.3 0.5 0.3 0.6 0.9 0.3 1.4l-2.8 4.5C57.1 18.5 56.8 18.6 56.5 18.6z" fill="#cbb754" data-fill-palette-color="accent"></path></svg></g></svg></g></svg></g></svg></g></svg></g></svg></g></svg></g><defs></defs></svg><rect width="320" height="360" fill="none" stroke="none" visibility="hidden"></rect></g></svg></g></svg>